<svg width="134" xmlns="http://www.w3.org/2000/svg" height="273" id="screenshot-1628623e-a253-805f-8008-074dd9375bbf" viewBox="0 0 134 273" xmlns:xlink="http://www.w3.org/1999/xlink" fill="none" version="1.1"><g id="shape-1628623e-a253-805f-8008-074dd9375bbf"><defs><clipPath id="frame-clip-1628623e-a253-805f-8008-074dd9375bbf-render-1" class="frame-clip frame-clip-def"><rect rx="0" ry="0" x="0" y="0" width="134" height="273" transform="matrix(1.000000, 0.000000, 0.000000, 1.000000, 0.000000, 0.000000)"/></clipPath></defs><g class="frame-container-wrapper"><g class="frame-container-blur"><g class="frame-container-shadows"><g clip-path="url(#frame-clip-1628623e-a253-805f-8008-074dd9375bbf-render-1)" fill="none"><g class="fills" id="fills-1628623e-a253-805f-8008-074dd9375bbf"><rect rx="0" ry="0" x="0" y="0" width="134" height="273" transform="matrix(1.000000, 0.000000, 0.000000, 1.000000, 0.000000, 0.000000)" class="frame-background"/></g><g class="frame-children"><g id="shape-1628623e-a253-805f-8008-074d93ed7d3d" rx="0" ry="0"><g id="shape-1628623e-a253-805f-8008-074c4cbebacf"><g class="fills" id="fills-1628623e-a253-805f-8008-074c4cbebacf"><path d="M32,11L52,11L52,31L32,31L32,11M52,21L62,21L62,41L52,41L52,21M22,21L32,21L32,41L22,41L22,21M62,31L72,31L72,51L62,51L62,31M72,21L82,21L82,41L72,41L72,21M102,21L112,21L112,41L102,41L102,21M102,71L112,71L112,91L102,91L102,71M92,81L102,81L102,101L92,101L92,81M82,91L92,91L92,111L82,111L82,91M72,101L82,101L82,121L72,121L72,101M82,201L102,201L102,221L82,221L82,201M82,251L102,251L102,271L82,271L82,251M82,231L92,231L92,241L82,241L82,231M52,101L62,101L62,121L52,121L52,101M62,111L72,111L72,121L62,121L62,111M42,121L92,121L92,131L42,131L42,121M52,131L82,131L82,271L52,271L52,131M42,91L52,91L52,111L42,111L42,91M32,81L42,81L42,101L32,101L32,81M22,71L32,71L32,91L22,91L22,71M112,31L122,31L122,81L112,81L112,31M12,31L22,31L22,81L12,81L12,31M122,41L132,41L132,71L122,71L122,41M2,41L12,41L12,71L2,71L2,41M82,11L102,11L102,31L82,31L82,11" style="fill: rgb(160, 39, 48); fill-opacity: 1;"/></g><g id="strokes-88ca646d-487c-8037-8008-074ed6862695-1628623e-a253-805f-8008-074c4cbebacf" class="strokes"><g class="outer-stroke-shape"><defs><mask id="outer-stroke-render-3-1628623e-a253-805f-8008-074c4cbebacf-0" x="-0.4142135623730949" y="8.585786437626961" width="134.82842712474618" height="264.82842712474707" maskUnits="userSpaceOnUse"><use href="#stroke-shape-render-3-1628623e-a253-805f-8008-074c4cbebacf-0" style="fill: none; stroke: white; stroke-width: 2;"/><use href="#stroke-shape-render-3-1628623e-a253-805f-8008-074c4cbebacf-0" style="fill: black; stroke: none;"/></mask><path d="M32,11L52,11L52,31L32,31L32,11M52,21L62,21L62,41L52,41L52,21M22,21L32,21L32,41L22,41L22,21M62,31L72,31L72,51L62,51L62,31M72,21L82,21L82,41L72,41L72,21M102,21L112,21L112,41L102,41L102,21M102,71L112,71L112,91L102,91L102,71M92,81L102,81L102,101L92,101L92,81M82,91L92,91L92,111L82,111L82,91M72,101L82,101L82,121L72,121L72,101M82,201L102,201L102,221L82,221L82,201M82,251L102,251L102,271L82,271L82,251M82,231L92,231L92,241L82,241L82,231M52,101L62,101L62,121L52,121L52,101M62,111L72,111L72,121L62,121L62,111M42,121L92,121L92,131L42,131L42,121M52,131L82,131L82,271L52,271L52,131M42,91L52,91L52,111L42,111L42,91M32,81L42,81L42,101L32,101L32,81M22,71L32,71L32,91L22,91L22,71M112,31L122,31L122,81L112,81L112,31M12,31L22,31L22,81L12,81L12,31M122,41L132,41L132,71L122,71L122,41M2,41L12,41L12,71L2,71L2,41M82,11L102,11L102,31L82,31L82,11" id="stroke-shape-render-3-1628623e-a253-805f-8008-074c4cbebacf-0"/></defs><use href="#stroke-shape-render-3-1628623e-a253-805f-8008-074c4cbebacf-0" mask="url(#outer-stroke-render-3-1628623e-a253-805f-8008-074c4cbebacf-0)" style="fill: none; stroke-width: 2; stroke: rgb(160, 39, 48); stroke-opacity: 1;"/><use href="#stroke-shape-render-3-1628623e-a253-805f-8008-074c4cbebacf-0" style="fill: none; stroke-width: 1; stroke: none; stroke-opacity: 1;"/></g></g></g><g id="shape-1628623e-a253-805f-8008-074cbfdcb9d7"><g class="fills" id="fills-1628623e-a253-805f-8008-074cbfdcb9d7"><path d="M32,2L52,2L52,22L32,22L32,2M52,12L62,12L62,32L52,32L52,12M22,12L32,12L32,32L22,32L22,12M62,22L72,22L72,42L62,42L62,22M72,12L82,12L82,32L72,32L72,12M102,12L112,12L112,32L102,32L102,12M102,62L112,62L112,82L102,82L102,62M92,72L102,72L102,92L92,92L92,72M82,82L92,82L92,102L82,102L82,82M72,92L82,92L82,112L72,112L72,92M82,192L102,192L102,212L82,212L82,192M82,242L102,242L102,262L82,262L82,242M82,222L92,222L92,232L82,232L82,222M52,92L62,92L62,112L52,112L52,92M62,102L72,102L72,112L62,112L62,102M42,112L92,112L92,122L42,122L42,112M52,122L82,122L82,262L52,262L52,122M42,82L52,82L52,102L42,102L42,82M32,72L42,72L42,92L32,92L32,72M22,62L32,62L32,82L22,82L22,62M112,22L122,22L122,72L112,72L112,22M12,22L22,22L22,72L12,72L12,22M122,32L132,32L132,62L122,62L122,32M2,32L12,32L12,62L2,62L2,32M82,2L102,2L102,22L82,22L82,2" style="fill: rgb(230, 57, 70); fill-opacity: 1;"/></g><g id="strokes-88ca646d-487c-8037-8008-074ed688b4df-1628623e-a253-805f-8008-074cbfdcb9d7" class="strokes"><g class="outer-stroke-shape"><defs><mask id="outer-stroke-render-4-1628623e-a253-805f-8008-074cbfdcb9d7-0" x="-0.4142135623730949" y="-0.4142135623730949" width="134.82842712474618" height="264.8284271247471" maskUnits="userSpaceOnUse"><use href="#stroke-shape-render-4-1628623e-a253-805f-8008-074cbfdcb9d7-0" style="fill: none; stroke: white; stroke-width: 2;"/><use href="#stroke-shape-render-4-1628623e-a253-805f-8008-074cbfdcb9d7-0" style="fill: black; stroke: none;"/></mask><path d="M32,2L52,2L52,22L32,22L32,2M52,12L62,12L62,32L52,32L52,12M22,12L32,12L32,32L22,32L22,12M62,22L72,22L72,42L62,42L62,22M72,12L82,12L82,32L72,32L72,12M102,12L112,12L112,32L102,32L102,12M102,62L112,62L112,82L102,82L102,62M92,72L102,72L102,92L92,92L92,72M82,82L92,82L92,102L82,102L82,82M72,92L82,92L82,112L72,112L72,92M82,192L102,192L102,212L82,212L82,192M82,242L102,242L102,262L82,262L82,242M82,222L92,222L92,232L82,232L82,222M52,92L62,92L62,112L52,112L52,92M62,102L72,102L72,112L62,112L62,102M42,112L92,112L92,122L42,122L42,112M52,122L82,122L82,262L52,262L52,122M42,82L52,82L52,102L42,102L42,82M32,72L42,72L42,92L32,92L32,72M22,62L32,62L32,82L22,82L22,62M112,22L122,22L122,72L112,72L112,22M12,22L22,22L22,72L12,72L12,22M122,32L132,32L132,62L122,62L122,32M2,32L12,32L12,62L2,62L2,32M82,2L102,2L102,22L82,22L82,2" id="stroke-shape-render-4-1628623e-a253-805f-8008-074cbfdcb9d7-0"/></defs><use href="#stroke-shape-render-4-1628623e-a253-805f-8008-074cbfdcb9d7-0" mask="url(#outer-stroke-render-4-1628623e-a253-805f-8008-074cbfdcb9d7-0)" style="fill: none; stroke-width: 2; stroke: rgb(0, 0, 0); stroke-opacity: 1;"/><use href="#stroke-shape-render-4-1628623e-a253-805f-8008-074cbfdcb9d7-0" style="fill: none; stroke-width: 1; stroke: none; stroke-opacity: 1;"/></g></g></g></g></g></g></g></g></g></g></svg>